<svg xmlns="http://www.w3.org/2000/svg" xmlns:xlink="http://www.w3.org/1999/xlink" viewBox="0 0 115.21 51.12"><defs><style>.cls-1{fill:#fff;}.cls-2{clip-path:url(#clip-path);}</style><clipPath id="clip-path"><path class="cls-1" d="M16.53,16.38a1,1,0,0,1-.74-.3L12,12.31a1.05,1.05,0,0,1,1.48-1.49l3.77,3.77a1.06,1.06,0,0,1,0,1.49A1,1,0,0,1,16.53,16.38ZM14.34,40.14l3.77-3.77a1.05,1.05,0,1,0-1.49-1.48l-3.77,3.77a1.05,1.05,0,0,0,.75,1.79A1,1,0,0,0,14.34,40.14ZM28.68,11.06A1,1,0,0,0,29.73,10V4.68a1,1,0,1,0-2.1,0V10a1.06,1.06,0,0,0,1.05,1.05Zm0,36.28a1.05,1.05,0,0,0,1.05-1.06V41a1.05,1.05,0,1,0-2.1,0v5.33a1.06,1.06,0,0,0,1.05,1.06ZM13.81,25.56a1,1,0,0,0-1.05-1H8a1,1,0,1,0,0,2.1h4.74A1,1,0,0,0,13.81,25.56Zm15,8.41h-.1a8.42,8.42,0,1,1,0-16.84h.1a1.06,1.06,0,0,0,0-2.11,10.52,10.52,0,1,0,0,21h0a1.06,1.06,0,0,0,0-2.11Z"/></clipPath></defs><title>Asset 2</title><g id="Layer_2" data-name="Layer 2"><g id="Layer_1-2" data-name="Layer 1"><path class="cls-1" d="M36.43,20.15h2L40,25.92c.88,3.16.92,3.5.92,3.5H41c.33-1.18.69-2.33,1-3.5l1.7-5.77H46l1.66,5.77c.34,1.17.69,2.32,1,3.5h.08s.06-.34,1-3.5l1.63-5.77h1.89L50,31.16H47.63l-1.83-6c-.75-2.52-.88-3.15-.88-3.15h-.08s-.15.63-.93,3.15l-1.88,6H39.76Z"/><path class="cls-1" d="M54,29h2.1v2.2H54Z"/><path class="cls-1" d="M58.36,27.38h1.89c0,1.62,1.13,2.52,2.83,2.52s2.5-.65,2.5-1.64c0-1.34-1.15-1.42-3.42-2-2.06-.55-3.29-1.22-3.29-3.13s1.63-3.16,4.05-3.16c2.58,0,4.27,1.47,4.27,3.67H65.35a2.15,2.15,0,0,0-2.43-2.2c-1.45,0-2.27.63-2.27,1.59s1,1.38,2.48,1.76c2.09.55,4.34,1,4.34,3.36,0,1.95-1.79,3.25-4.39,3.25C60.21,31.37,58.36,29.78,58.36,27.38Z"/><path class="cls-1" d="M69.84,20.15h1.74v1.47h.08a4.19,4.19,0,0,1,3.46-1.68c2.83,0,4.72,2.3,4.72,5.77s-1.91,5.66-4.76,5.66a4.17,4.17,0,0,1-3.5-1.68h-.09c.09,1,.09,5.56.09,5.56H69.84ZM78,25.71c0-2.58-1.26-4.3-3.14-4.3-2.08,0-3.23,1.72-3.23,4.3s1.28,4.19,3.19,4.19S78,28.22,78,25.71Z"/><path class="cls-1" d="M81.58,28c0-2.55,2.19-3.21,4.89-3.39l2.58-.19c0-2.18-1-3-2.58-3-1.82,0-2.56.88-2.6,2.2H82c.06-2.35,1.82-3.67,4.44-3.67a4,4,0,0,1,4.32,4.32v4.8a4.55,4.55,0,0,0,.44,2v.08H89.39a3.5,3.5,0,0,1-.34-1.47H89c-.46,1-1.93,1.68-3.53,1.68C83.14,31.37,81.58,30,81.58,28Zm7.47-1.28v-.92l-2.58.27c-2.12.24-3,.8-3,1.93s1.09,1.87,2.46,1.87A3,3,0,0,0,89.05,26.75Z"/><path class="cls-1" d="M93,25.6c0-3.4,2.1-5.66,5.25-5.66A4.46,4.46,0,0,1,103,23.71h-1.89a2.68,2.68,0,0,0-2.83-2.3c-2.14,0-3.36,1.67-3.36,4.19,0,2.75,1.32,4.3,3.31,4.3a2.7,2.7,0,0,0,2.88-2.33H103c-.21,2.18-2.16,3.8-4.77,3.8C94.87,31.37,93,29.06,93,25.6Z"/><path class="cls-1" d="M105.06,25.62c0-3.42,2.06-5.68,5.14-5.68s5,2.12,5,5.28c0,.17,0,.49,0,.84H107c0,2.31,1.34,3.84,3.34,3.84a2.77,2.77,0,0,0,3-2.16H115a4.57,4.57,0,0,1-4.74,3.63C107.16,31.37,105.06,29.06,105.06,25.62Zm8.2-1a3,3,0,0,0-3.06-3.23A3.21,3.21,0,0,0,107,24.64Z"/><path class="cls-1" d="M16.53,16.38a1,1,0,0,1-.74-.3L12,12.31a1.05,1.05,0,0,1,1.48-1.49l3.77,3.77a1.06,1.06,0,0,1,0,1.49A1,1,0,0,1,16.53,16.38ZM14.34,40.14l3.77-3.77a1.05,1.05,0,1,0-1.49-1.48l-3.77,3.77a1.05,1.05,0,0,0,.75,1.79A1,1,0,0,0,14.34,40.14ZM28.68,11.06A1,1,0,0,0,29.73,10V4.68a1,1,0,1,0-2.1,0V10a1.06,1.06,0,0,0,1.05,1.05Zm0,36.28a1.05,1.05,0,0,0,1.05-1.06V41a1.05,1.05,0,1,0-2.1,0v5.33a1.06,1.06,0,0,0,1.05,1.06ZM13.81,25.56a1,1,0,0,0-1.05-1H8a1,1,0,1,0,0,2.1h4.74A1,1,0,0,0,13.81,25.56Zm15,8.41h-.1a8.42,8.42,0,1,1,0-16.84h.1a1.06,1.06,0,0,0,0-2.11,10.52,10.52,0,1,0,0,21h0a1.06,1.06,0,0,0,0-2.11Z"/><g class="cls-2"><path class="cls-1" d="M3.32,0h36.1a0,0,0,0,1,0,0V51.12a0,0,0,0,1,0,0H3.32A3.32,3.32,0,0,1,0,47.81V3.32A3.32,3.32,0,0,1,3.32,0Z"/></g></g></g></svg>